PathFileType	4	(X/Y/Z)	C:/Users/beibeiliu/ov580/test_trc/capture2\sequence.35_training_dense_left.trc
DataRate	CameraRate	NumFrames	NumMarkers	Units	OrigDataRate	OrigDataStartFrame	OrigNumFrames
120	120	22	19	mm	120	205	272
Frame#	Time	ThumbCMC			ThumbMCP			ThumbIP			ThumbTip			IndexMCP			IndexPIP			IndexTip			MiddleMCP			MiddlePIP			MiddleTip			RingMCP			RingPIP			RingTip			PinkyMCP			PinkyPIP			PinkyTip			BackHand1			BackHand2			BackHand3	
		X0	Y0	Z0	X1	Y1	Z1	X2	Y2	Z2	X3	Y3	Z3	X4	Y4	Z4	X5	Y5	Z5	X6	Y6	Z6	X7	Y7	Z7	X8	Y8	Z8	X9	Y9	Z9	X10	Y10	Z10	X11	Y11	Z11	X12	Y12	Z12	X13	Y13	Z13	X14	Y14	Z14	X15	Y15	Z15	X16	Y16	Z16	X17	Y17	Z17	X18	Y18	Z18	
204	1.7	-230.726	96.3776	55.4661	-208.073	113.208	36.8641	-197.827	122.219	17.8905	-192.618	121.724	-11.9738	-245.437	117.722	-14.7721	-219.457	120.836	-29.5866	-197.961	114.116	-3.94743	-238.375	96.3744	-24.9674	-208.511	104.837	-33.5273	-192.49	93.1321	-1.20844	-230.826	80.6206	-26.6769	-198.953	86.9956	-25.3503	-193.275	80.838	3.89621	-226.685	59.4093	-23.123	-197.912	70.16	-23.3389	-192.473	70.2866	8.54878	-257.457	57.2598	16.8878	-258.37	44.6432	45.2602	-262.137	78.3175	42.9883	
205	1.70833	-229.01	100.387	58.4894	-206.753	111.506	41.4985	-197.355	123.323	14.9889	-191.38	122.976	-9.04824	-245.48	113.591	-9.75146	-219.125	124.962	-26.666	-196.961	113.887	-4.12261	-238.761	99.1473	-22.1162	-207.015	102.727	-32.0729	-191.564	93.7343	1.99795	-228.669	77.9811	-28.8366	-197.347	84.5966	-25.1254	-192.784	84.3824	5.29037	-224.905	62.9123	-23.6486	-197.458	69.6459	-21.237	-192.498	74.3976	8.52907	-258.676	56.6278	18.5986	-256.887	40.0109	46.0178	-260.928	76.6352	44.2938	
206	1.71667	-228.477	98.4752	57.9968	-206.519	110.863	40.684	-197.279	121.446	17.1013	-191.353	122.324	-11.1477	-244.315	110.964	-10.8644	-216.914	123.195	-25.249	-196.021	114.652	-1.89696	-236.313	99.1185	-21.8216	-205.157	100.873	-29.7682	-190.83	95.5862	2.48852	-229.308	76.1313	-25.0106	-198.09	85.7757	-24.65	-193.103	79.4486	9.49655	-225.303	58.5005	-18.9316	-197.284	70.4659	-19.6016	-193.647	74.7094	13.6021	-257.455	56.5727	19.9794	-256.84	39.2523	49.4239	-259.274	79.7588	44.4851	
207	1.725	-228.611	96.6626	60.5468	-205.635	111.472	42.4151	-196.796	124.706	17.9324	-190.223	125.634	-6.53033	-243.546	113.473	-11.2072	-219.224	123.502	-25.1068	-196.599	114.487	-3.77218	-234.906	96.9705	-22.1426	-204.969	102.155	-29.3011	-189.028	93.1895	4.57378	-227.885	80.4753	-23.3491	-197.273	82.0584	-25.0091	-191.532	82.0011	7.39677	-221.994	56.9726	-21.7002	-193.9	67.6561	-19.7412	-191.648	68.9775	14.1062	-255.142	55.2903	21.9029	-257.01	41.5319	47.9334	-258.422	76.1063	48.186	
208	1.73333	-226.722	95.9678	62.6147	-206.662	109.652	40.8439	-195.068	125.758	19.5173	-188.89	124.543	-8.61344	-242.239	110.785	-11.0977	-216.951	124.393	-24.9766	-195.041	113.985	-3.47325	-235.296	95.0479	-20.3941	-203.691	102.926	-27.0966	-188.807	91.4708	7.52891	-227.48	74.8811	-24.2534	-196.3	86.6649	-21.5153	-190.839	81.2289	10.7856	-222.6	60.9981	-19.5223	-193.609	70.4196	-16.929	-188.525	70.9338	10.2838	-252.969	53.3628	23.9116	-253.904	39.5002	49.8017	-257.038	74.2579	46.7464	
209	1.74167	-225.041	95.5198	62.046	-203.883	109.434	44.6333	-193.865	124.898	17.6794	-188.725	123.718	-5.52918	-241.449	111.221	-7.17292	-215.862	120.497	-24.598	-193.403	110.747	-1.16696	-232.803	93.7189	-21.0722	-199.661	101.516	-26.6741	-187.069	96.3132	7.93211	-226.999	77.9721	-22.2062	-196.163	86.88	-24.363	-189.58	82.4099	10.9712	-219.697	57.7989	-20.3286	-191.101	67.2727	-18.5145	-188.863	70.9563	14.5177	-252.518	52.5174	22.2704	-253.213	44.346	47.5175	-257.06	73.7107	48.0842	
210	1.75	-224.903	96.8426	59.4151	-201.928	109.064	43.0233	-192.999	121.981	19.4076	-186.547	124.345	-7.04057	-239.464	115.764	-9.63942	-211.826	124.234	-23.1922	-191.762	111.61	-1.90815	-229.895	96.2468	-21.6942	-201.64	103.619	-27.1964	-185.781	92.8618	9.16763	-222.565	75.8948	-23.8652	-195.505	86.4304	-23.4997	-187.974	82.7387	9.66801	-219.019	55.9617	-20.6882	-189.509	68.3795	-18.394	-187.058	73.3505	12.9726	-252.17	53.161	24.6892	-249.679	39.2645	51.6855	-254.66	76.9859	45.3649	
211	1.75833	-222.457	93.5501	59.8716	-201.07	108.588	39.3734	-189.451	123.628	18.3555	-184.325	121.118	-3.73442	-237.538	114.952	-10.5959	-212.059	120.63	-24.8108	-188.653	109.855	0.557627	-228.516	92.6445	-21.3845	-199.22	101.774	-27.9997	-183.072	91.4284	7.83665	-218.323	75.6216	-26.3528	-188.8	84.5269	-21.2062	-186.872	80.6391	13.2818	-214.503	57.8704	-21.9604	-188.72	67.5762	-18.4091	-184.758	72.9997	12.4932	-248.609	49.8457	19.9946	-247.618	38.8639	47.3805	-254.615	77.5234	46.603	
212	1.76667	-219.765	97.4973	61.1728	-196.525	111.346	45.0954	-186.95	121.866	18.2982	-180.935	118.336	-4.5108	-234.062	111.871	-10.3901	-209.709	120.519	-25.2682	-186.085	111.74	-1.05063	-226.687	94.7913	-17.9152	-194.523	97.3389	-27.7098	-180.324	93.3846	6.72148	-217.063	74.4773	-23.2367	-186.065	83.5526	-18.9716	-182.306	79.7895	10.5784	-213.242	54.6895	-16.8629	-184.771	66.2913	-17.2455	-181.859	66.4903	14.0679	-244.146	47.5557	21.8958	-245.759	36.281	50.4186	-248.265	71.8168	44.0973	
213	1.775	-216.939	89.9355	61.8352	-192.212	109.643	44.9554	-184.584	118.017	19.0413	-177.429	117.374	-8.72523	-229.902	108.633	-12.3609	-205.475	118.554	-24.7223	-183.022	106.508	-4.42715	-219.994	92.2727	-22.7587	-192.388	97.6848	-28.2861	-175.77	88.1358	4.19817	-213.258	71.0297	-23.0831	-182.47	80.829	-20.4178	-178.256	79.4827	10.7975	-207.885	54.3734	-17.8807	-181.371	66.3441	-14.9215	-179.15	66.7233	18.5543	-240.742	45.7184	21.1945	-240.614	35.0663	49.6952	-245.374	72.2634	48.6041	
214	1.78333	-213.113	89.5577	61.8782	-190.091	106.099	41.4386	-180.045	115.646	18.0961	-173.457	113.263	-3.74412	-226.861	107.075	-11.0174	-201.712	112.951	-24.9443	-179.169	106.212	0.0374452	-218.485	88.8793	-19.1212	-185.593	98.4577	-24.3082	-172.68	90.0181	7.92839	-208.968	67.6578	-22.6559	-179.272	76.0045	-22.6305	-175.155	73.5298	12.8429	-204.047	50.8614	-18.1332	-175.671	62.1989	-12.9423	-176.71	62.6304	20.7124	-238.928	46.4115	20.7182	-237.402	35.469	50.5698	-243.695	68.1285	46.4581	
215	1.79167	-207.865	86.5071	59.5111	-185.772	102.801	42.8463	-175.063	113.457	19.4825	-168.991	111.516	-2.09587	-222.435	100.624	-6.94431	-198.398	109.588	-25.6038	-175.39	102.494	-3.1895	-211.345	84.9998	-21.5458	-183.604	93.3146	-25.9929	-168.197	85.6066	10.4678	-203.317	68.9456	-24.2698	-173.975	71.3951	-21.3142	-169.913	73.1746	11.8534	-198.274	47.4135	-19.6309	-172.539	58.7052	-14.6825	-172.585	61.5668	20.1327	-232.353	42.3792	21.8548	-235.656	34.0236	53.2936	-239.443	68.216	44.9476	
216	1.8	-204.267	82.4548	64.063	-181.228	99.7308	41.4956	-170.682	111.634	22.4354	-165.406	107.914	-4.12859	-217.866	99.2268	-7.9231	-189.569	107.033	-23.7263	-169.184	100.822	-1.06953	-208.843	84.6074	-17.4752	-175.311	91.4001	-23.6396	-164.49	79.5792	10.2881	-200.592	63.324	-19.6487	-169.004	69.1811	-18.8259	-166.861	70.0002	15.1257	-195.383	46.7159	-17.2959	-168.384	55.4221	-14.6726	-168.257	60.3666	19.2344	-230.14	43.2182	23.3237	-229.615	29.415	50.1944	-233.82	64.4756	46.243	
217	1.80833	-200.073	85.5332	60.7953	-177.314	98.4403	41.8113	-166.483	108.392	24.0142	-161.05	104.83	-2.18885	-212.544	97.8018	-9.55321	-188.549	103.902	-25.0925	-165.423	100.052	0.469951	-201.671	81.5709	-22.0156	-171.918	87.8032	-23.8882	-159.709	78.4799	10.2862	-193.381	61.5036	-22.018	-164.496	65.0996	-19.5762	-163.448	67.8782	16.7935	-190.799	41.2613	-14.6793	-161.898	49.4291	-13.8906	-165.597	55.5704	19.9083	-226.045	40.0574	23.1504	-224.877	27.4638	52.5402	-229.866	61.6028	45.8509	
218	1.81667	-197.088	81.8785	60.47	-174.522	95.4747	44.9092	-164.304	107.158	21.9876	-156.249	104.625	-3.19408	-209.225	92.8688	-8.58069	-184.85	100.57	-24.5482	-161.88	97.4637	1.46042	-198.62	76.1262	-22.0624	-169.158	82.1219	-24.6742	-157.59	75.7196	11.9401	-191.043	55.9365	-20.1689	-160.214	66.3186	-17.3661	-157.505	63.2991	13.8723	-186.723	35.8783	-14.5401	-159.758	51.9602	-12.1087	-160.427	54.6796	20.8494	-221.271	36.0021	24.0522	-222.586	23.4036	50.9596	-228.069	57.2399	47.9406	
219	1.825	-194.451	78.4276	61.5373	-171.551	95.1884	45.9342	-161.053	106.747	19.4405	-152.947	101.991	-0.422869	-206.793	89.4835	-8.19943	-180.813	96.6689	-24.9724	-159.216	94.7077	4.79506	-195.641	72.5265	-18.8545	-164.953	78.2524	-24.813	-153.68	72.7747	11.1757	-184.471	55.1069	-22.2578	-158.926	64.4093	-18.3944	-154.331	62.1242	17.1747	-182.077	37.6446	-12.7734	-154.285	46.1471	-12.275	-156.198	52.8713	18.5108	-214.84	32.2997	23.846	-219.566	22.8315	52.3147	-223.071	54.9366	45.2123	
220	1.83333	-191.448	78.3438	63.6068	-168.647	93.5766	45.8272	-156.504	106.07	23.8026	-150.184	99.1772	-2.51773	-202.329	86.0282	-8.53298	-175.858	96.7274	-22.9175	-155.322	95.3784	1.12917	-192.997	72.6269	-16.7135	-161.221	81.5785	-22.8565	-150.807	75.8162	14.2531	-180.564	53.2243	-22.0863	-152.64	60.1047	-17.163	-150.396	61.0932	15.8828	-174.566	34.6861	-16.5978	-149.885	46.5059	-11.6335	-154.131	52.9924	21.4088	-209.409	28.0932	22.4068	-212.805	23.3073	51.8788	-219.841	55.4829	45.8539	
221	1.84167	-188.429	78.4065	64.8132	-164.833	93.6874	44.2961	-153.619	104.445	20.2358	-146.216	99.8575	-3.91485	-198.937	83.1332	-7.64795	-174.964	94.4851	-23.6931	-152.599	93.748	2.7009	-189.167	72.1394	-17.8376	-156.024	78.2943	-21.9067	-146.704	73.8213	15.4988	-177.611	53.8411	-18.5947	-148.144	61.4803	-14.5742	-147.096	59.5486	20.4089	-171.065	36.5391	-13.3669	-144.8	46.5002	-9.20656	-148.162	49.5915	24.2859	-204.986	29.4066	23.7708	-209.42	15.8669	56.4076	-216.786	55.0804	46.2534	
222	1.85	-185.183	76.3777	64.1155	-161.838	92.8596	43.891	-151.381	104.275	20.1142	-142.857	97.6281	-5.47278	-196.733	83.5042	-5.8023	-172.914	95.6275	-23.222	-148.73	95.2891	0.627714	-185.333	68.8486	-15.3264	-151.912	79.5769	-19.784	-142.618	73.2576	16.3741	-172.651	53.3539	-18.4984	-143.706	60.9228	-14.7607	-140.984	58.8758	19.5595	-167.582	31.5347	-8.5867	-139.066	46.2055	-6.19724	-143.972	49.3241	26.3389	-200.252	25.5906	24.5456	-203.66	18.3741	56.3435	-211.048	48.8873	49.3321	
223	1.85833	-182.652	77.659	65.6345	-158.982	90.8035	50.0752	-149.83	99.7227	24.9604	-140.042	100.188	-0.862831	-192.607	82.7125	-6.3249	-168.016	91.8797	-22.7784	-144.596	91.622	3.17736	-179.042	65.7044	-16.6728	-150.568	79.4661	-20.9841	-139.257	76.6461	17.1355	-170.342	52.1576	-15.9692	-139.958	62.059	-11.9532	-137.865	62.2346	18.5133	-162.615	34.8793	-11.0751	-138.351	48.6712	-6.82628	-139.663	50.7391	26.1977	-199.05	27.6891	27.0976	-200.628	14.2451	54.0913	-206.464	48.5785	49.3153	
224	1.86667	-179.514	76.75	65.0715	-157.999	90.4052	45.3858	-145.472	106.042	26.8879	-137.408	102.236	0.700352	-189.815	83.5762	-6.79134	-163.158	93.5385	-21.1025	-143.689	94.8413	6.06836	-175.686	67.3196	-17.6256	-144.703	77.7597	-19.0298	-137.801	78.8321	17.5034	-167.454	49.6029	-13.3974	-135.731	61.7062	-12.1529	-135.736	63.7043	19.998	-158.879	32.3612	-11.1703	-132.752	46.7383	-6.77481	-136.995	53.0233	27.417	-193.965	24.3559	28.8832	-198.328	15.5635	58.01	-205.892	52.2021	49.124	
225	1.875	-179.021	80.4902	67.1963	-157.442	97.4936	50.3054	-147.543	104.017	29.6802	-137.79	103.663	-0.835064	-186.846	83.894	-8.71877	-162.031	98.1451	-19.1062	-142.158	93.1739	4.83208	-176.83	69.6034	-13.0411	-144.493	78.7449	-19.025	-136.813	79.8577	16.5752	-162.182	52.4254	-16.8388	-136.844	68.2201	-11.0333	-134.177	65.3943	21.0023	-156.392	38.0348	-8.3419	-131.978	50.9382	-4.34252	-134.864	54.8209	29.4834	-192.342	26.4715	29.991	-193.017	18.1174	61.1492	-202.775	52.7833	50.9462	
